<svg xmlns="http://www.w3.org/2000/svg" xmlns:xlink="http://www.w3.org/1999/xlink" width="1080" zoomAndPan="magnify" viewBox="0 0 810 809.999993" height="1080" preserveAspectRatio="xMidYMid meet" version="1.2"><defs><clipPath id="f985c12863"><path d="M 30 28 L 780 28 L 780 782.71875 L 30 782.71875 Z M 30 28 "/></clipPath></defs><g id="00feb1d937"><g clip-rule="nonzero" clip-path="url(#f985c12863)"><path style=" stroke:none;fill-rule:nonzero;fill:#d4a574;fill-opacity:1;" d="M 775.238281 265.652344 C 770.96875 240.859375 764.050781 216.84375 753.726562 193.804688 C 738.375 159.503906 717.371094 129.292969 689.769531 103.667969 C 666.988281 82.503906 641.308594 65.898438 612.878906 53.417969 C 579.40625 38.722656 544.296875 30.796875 507.898438 28.976562 C 477.636719 27.441406 447.554688 29.714844 417.769531 35.832031 C 373.226562 44.964844 331.679688 61.65625 292.425781 84.394531 C 284.230469 89.132812 276.5625 94.695312 267.421875 97.925781 C 241.804688 106.980469 217.625 119.089844 194.730469 133.75 C 170.390625 149.332031 148.171875 167.472656 128.117188 188.308594 C 115.449219 201.472656 103.835938 215.472656 93.304688 230.371094 C 75.695312 255.308594 61.671875 282.164062 51.066406 310.816406 C 38.871094 343.734375 32.058594 377.738281 30.414062 412.726562 C 29.800781 425.515625 29.976562 438.328125 30.820312 451.160156 C 31.75 465.277344 33.34375 479.265625 36.0625 493.09375 C 44.863281 537.925781 61.800781 579.507812 86.925781 617.675781 C 105.421875 645.742188 127.460938 670.679688 152.984375 692.582031 C 176.175781 712.46875 201.453125 729.113281 228.75 742.753906 C 250.425781 753.574219 272.941406 762.238281 296.320312 768.636719 C 325.816406 776.707031 355.804688 781.339844 386.417969 782.148438 C 396.972656 782.441406 407.503906 782.148438 418.035156 781.902344 C 425.667969 781.722656 433.328125 781.144531 440.898438 780.214844 C 460.136719 777.839844 479.179688 774.363281 497.90625 769.292969 C 523.089844 762.460938 547.378906 753.261719 570.59375 741.417969 C 595.847656 728.527344 619.363281 712.96875 641.105469 694.710938 C 659.804688 679.011719 676.71875 661.640625 691.863281 642.570312 C 710.847656 618.65625 726.285156 592.570312 738.527344 564.589844 C 748.128906 542.628906 755.292969 519.835938 760.203125 496.425781 C 765.226562 472.492188 767.546875 448.210938 766.789062 423.699219 C 766.667969 420.089844 767.253906 416.621094 768.117188 413.144531 C 775.527344 383.214844 780.121094 352.917969 779.488281 320.324219 C 780.164062 303.046875 778.433594 284.25 775.238281 265.652344 Z M 753.828125 474.488281 C 750.933594 495.011719 746.460938 515.195312 739.6875 534.832031 C 729.726562 563.6875 716.382812 590.867188 699.105469 616.101562 C 687.511719 633.039062 674.621094 648.824219 660.332031 663.582031 C 638.148438 686.492188 613.246094 705.882812 585.804688 722.042969 C 552.304688 741.765625 516.519531 755.714844 478.589844 764.089844 C 463.910156 767.324219 449.078125 769.523438 434.109375 771.023438 C 422.515625 772.171875 410.9375 772.378906 399.332031 772.582031 C 352.285156 773.367188 307.0625 764.308594 263.316406 747.558594 C 228.136719 734.097656 195.90625 715.296875 166.695312 691.578125 C 135.714844 666.394531 109.644531 636.796875 88.832031 602.589844 C 70.625 572.652344 57.335938 540.769531 49.0625 506.785156 C 44.53125 488.203125 41.710938 469.339844 40.414062 450.214844 C 39.527344 437.382812 39.367188 424.554688 40.007812 411.789062 C 41.335938 385.386719 45.859375 359.445312 53.449219 334.074219 C 59.773438 313.011719 68.019531 292.726562 78.3125 273.3125 C 90.210938 250.835938 104.363281 229.914062 120.941406 210.5625 C 143.546875 184.167969 169.402344 161.601562 198.558594 142.796875 C 210.75 134.933594 223.214844 127.480469 236.539062 121.617188 C 236.800781 121.847656 237.050781 122.09375 237.296875 122.332031 C 228.574219 129.949219 219.585938 137.304688 211.140625 145.242188 C 183.699219 171.050781 159.570312 199.683594 139.210938 231.394531 C 120.433594 260.625 105.113281 291.542969 93.679688 324.402344 C 85.507812 347.894531 79.511719 371.902344 75.738281 396.4375 C 73.828125 408.800781 72.859375 421.28125 72.109375 433.8125 C 71.425781 445.453125 71.714844 457.03125 72.3125 468.625 C 73.566406 493.339844 77.65625 517.589844 84.605469 541.347656 C 93.152344 570.597656 105.929688 597.902344 123.242188 623.003906 C 147.773438 658.511719 179.03125 686.515625 216.925781 707.203125 C 242.417969 721.097656 269.433594 730.707031 297.777344 736.492188 C 315.738281 740.148438 333.945312 741.972656 352.339844 742.507812 C 407.621094 744.136719 460.230469 732.753906 510.90625 711.179688 C 548.34375 695.25 582.789062 674.316406 614.386719 648.800781 C 640.371094 627.816406 663.75 604.234375 684.71875 578.1875 C 704.59375 553.5 721.566406 526.992188 735.972656 498.8125 C 742.8125 485.410156 748.835938 471.605469 754.117188 457.507812 C 754.425781 456.679688 754.757812 455.863281 755.515625 453.921875 C 756 461.648438 754.730469 468.089844 753.828125 474.488281 Z M 767.613281 361.925781 C 766.796875 368.332031 765.910156 374.730469 765.066406 381.121094 C 764.597656 380.855469 764.121094 380.609375 763.652344 380.363281 C 761.539062 364.53125 758.070312 348.976562 753.632812 333.648438 C 747.386719 312.035156 739.300781 291.101562 728.710938 271.242188 C 715.34375 246.117188 699.609375 222.59375 680.824219 201.097656 C 660.546875 177.925781 637.738281 157.640625 612.382812 140.277344 C 586.230469 122.375 558.191406 108.054688 528.328125 97.269531 C 505.191406 88.910156 481.460938 82.878906 457.199219 79.078125 C 445.621094 77.273438 433.941406 76.226562 422.226562 75.441406 C 410.714844 74.65625 399.238281 74.71875 387.761719 74.871094 C 364.632812 75.203125 341.800781 78.253906 319.164062 82.8125 C 318.335938 82.691406 317.382812 82.988281 316.820312 82.054688 C 353.582031 63.148438 392.175781 49.890625 432.984375 42.914062 C 457.4375 38.730469 482.042969 37.246094 506.714844 38.558594 C 543.085938 40.484375 578.144531 48.460938 611.542969 63.421875 C 645.066406 78.441406 674.230469 99.449219 698.867188 126.578125 C 727.035156 157.597656 746.433594 193.601562 758.011719 233.832031 C 764.101562 254.917969 767.902344 276.386719 769.257812 298.324219 C 770.570312 319.589844 770.289062 340.777344 767.613281 361.925781 Z M 767.613281 361.925781 "/></g></g></svg>